PathFileType	4	(X/Y/Z)	Walk2.trc
DataRate	CameraRate	NumFrames	NumMarkers	Units	OrigDataRate	OrigDataStartFrame	OrigNumFrames
200.000000	200.000000	7	61	mm	200.000000	350	450
Frame#	Times		LFHD		RFHD		CLAV		STRN		LASI		RASI		RACR1		RUA1		RWRU		RCAR		LACR1		LUA1		LFA1		LWRU		LCAR		RTH3		RTH2		RTB1		LTH1		LTH3		LTH2		LTH4		LLFC		LTB1		LTB3		LTB2		LTB4		LToe		RTB4		RWRR		LBHD		RLFC		RMFC		RTB3		RMT5		RToe		RFA1		LWRR		LElbow		RTH4		RMT1		RTB2		RMMAL		LMFC		LPSI		RTH1		RElbow		LElbowM		LMT5		RBHD		RBack		RPSI		RLMAL		RCAL		C7		T10		LMMAL		LMT1		RElbowM		LCAL		LLMAL
			X1	Y1	Z1	X2	Y2	Z2	X3	Y3	Z3	X4	Y4	Z4	X5	Y5	Z5	X6	Y6	Z6	X7	Y7	Z7	X8	Y8	Z8	X9	Y9	Z9	X10	Y10	Z10	X11	Y11	Z11	X12	Y12	Z12	X13	Y13	Z13	X14	Y14	Z14	X15	Y15	Z15	X16	Y16	Z16	X17	Y17	Z17	X18	Y18	Z18	X19	Y19	Z19	X20	Y20	Z20	X21	Y21	Z21	X22	Y22	Z22	X23	Y23	Z23	X24	Y24	Z24	X25	Y25	Z25	X26	Y26	Z26	X27	Y27	Z27	X28	Y28	Z28	X29	Y29	Z29	X30	Y30	Z30	X31	Y31	Z31	X32	Y32	Z32	X33	Y33	Z33	X34	Y34	Z34	X35	Y35	Z35	X36	Y36	Z36	X37	Y37	Z37	X38	Y38	Z38	X39	Y39	Z39	X40	Y40	Z40	X41	Y41	Z41	X42	Y42	Z42	X43	Y43	Z43	X44	Y44	Z44	X45	Y45	Z45	X46	Y46	Z46	X47	Y47	Z47	X48	Y48	Z48	X49	Y49	Z49	X50	Y50	Z50	X51	Y51	Z51	X52	Y52	Z52	X53	Y53	Z53	X54	Y54	Z54	X55	Y55	Z55	X56	Y56	Z56	X57	Y57	Z57	X58	Y58	Z58	X59	Y59	Z59	X60	Y60	Z60	X61	Y61	Z61

350	1.75	906.07	1563.5	-79.175	908.59	1572.3	19.807	847.42	1305.3	-12.902	869.43	1172.2	-6.983	832.73	896.54	-117.78	820.52	914.52	132.67	777.22	1351.1	152.31	790.96	1184.3	210.22	993.74	847.61	195.28	1021.7	780.5	236.36	761.16	1355.7	-162.37	701.49	1191.5	-215.11	592.16	921.96	-240.02	598.06	794.78	-239.77	534.96	746.4	-255.52	678.34	593.13	160.59	756.47	661.99	156.38	613.41	341.92	97.176	811.46	730.66	-189.3	868.24	570.54	-160.27	891.24	673.64	-156.19	839.38	649.73	-176.57	920.15	447.86	-134.81	990.78	370.94	-73.965	1033	205.39	-65.517	993.3	280.27	-129.07	1009.4	286.61	-70.281	1214.2	114.51	-72.783	579.75	262.18	85.854	954.1	814.37	240.21	754.46	1521.3	-95.196	628.65	449.06	130.73	598.63	456.89	1.9803	543.94	184.68	70.679	539.12	26.507	86.888	629.97	24.129	37.114	902.72	921.62	249.8	537.02	818.17	-216.13	632.1	1048.8	-215.08	704.3	670.86	181.21	577.12	31.902	3.2021	532.69	277.57	122.75	476.6	118.53	-2.7299	906.43	430.46	-2.895	654.56	951.92	-57.563	732.05	750.31	204.1	806.37	1017.8	247.62	634.89	1033.5	-142.09	1135.3	73.859	-117.41	761.3	1539.7	49.579	659.54	1285.9	67.222	652.48	954.57	42.653	452.24	101.32	74.594	399.69	92.624	29.02	736.13	1409.2	-13.948	660.5	1197.2	-1.317	1029.2	104.12	-27.15	1164	97.659	-45.337	765.24	1006.6	181.03	981.23	32.238	-58.823	1017.3	80.316	-105.83
351	1.755	913.89	1562.6	-79.578	916.57	1571.3	19.395	855.56	1304.2	-13.199	877.63	1171.1	-7.2216	841.6	895.31	-117.67	828.39	913.53	132.85	785.25	1350.1	151.93	799.11	1183.4	209.98	1003.4	848.34	194.55	1031.8	781.28	235.35	769.32	1354.6	-162.73	708.68	1190.8	-215.54	597.83	921.97	-240.56	603.06	794.72	-240.55	539.62	746.53	-255.91	684.57	592.82	160.5	763.11	661.26	156.55	617.57	341.71	97.362	820.73	729.71	-189.7	876.78	569.28	-160.68	899.93	672.34	-155.67	848.29	648.63	-177.04	928.43	446.59	-134.64	999.96	370.73	-73.721	1045.1	205.8	-65.306	1004.3	280.1	-128.91	1020.1	286.68	-70.068	1228	117.7	-72.047	582.93	262.41	86.11	964	814.57	239.3	762.34	1520.1	-95.386	634.05	448.83	130.82	604.77	456.72	1.9081	546.21	185.3	70.992	539.3	26.64	86.898	629.95	24.16	37.043	911.78	921.37	249.28	542.24	818.39	-216.63	638.57	1048.5	-215.45	710.99	670.43	181.2	577.22	31.81	3.1714	535.99	278.41	122.85	478.02	119.92	-2.37	913.68	428.56	-2.9036	663.17	950.84	-58.714	739.03	749.8	203.96	814.71	1016.9	247.44	641.7	1032.9	-142.54	1149.9	75.616	-116.96	769.38	1538.5	49.379	667.69	1284.7	66.87	660.72	953.37	41.511	453.48	103.06	74.953	400.8	95.081	29.45	744.23	1408	-14.318	668.75	1195.9	-1.6599	1042.9	104.41	-26.995	1178.1	99.835	-44.92	773.44	1005.7	180.98	996.14	31.709	-58.694	1031.6	80.424	-105.7
352	1.76	921.74	1561.6	-79.973	924.55	1570.3	18.994	863.72	1303	-13.546	885.87	1170	-7.5004	850.47	894.09	-117.57	836.37	912.51	133.01	793.3	1349	151.51	807.25	1182.5	209.7	1012.9	848.96	193.9	1041.8	781.92	234.43	777.49	1353.4	-163.14	715.96	1190.1	-216.02	603.76	921.9	-241.23	608.4	794.6	-241.45	544.68	746.55	-256.47	691.01	592.44	160.42	769.95	660.5	156.68	621.91	341.44	97.566	830.1	728.84	-190.07	885.49	568.14	-160.98	908.74	671.18	-155.13	857.34	647.63	-177.42	936.81	445.38	-134.46	1009	370.39	-73.441	1056.5	206	-65.005	1014.7	279.8	-128.67	1030.3	286.58	-69.79	1240.7	120.22	-71.287	586.26	262.6	86.397	973.71	814.69	238.44	770.25	1518.9	-95.6	639.68	448.53	130.92	611.06	456.5	1.8824	548.59	185.93	71.355	539.51	26.777	86.94	629.91	24.194	36.955	920.72	921.07	248.8	547.75	818.49	-217.31	645.18	1048.1	-215.93	717.88	669.94	181.18	577.3	31.712	3.1502	539.47	279.23	123.01	479.52	121.36	-1.9263	921.05	426.81	-2.8949	671.81	949.78	-59.822	746.2	749.24	203.79	822.99	1016	247.25	648.6	1032.4	-143.1	1163.4	76.924	-116.42	777.46	1537.3	49.158	675.85	1283.5	66.466	669.05	952.18	40.406	454.83	104.85	75.404	402.01	97.644	29.989	752.34	1406.9	-14.732	677.03	1194.7	-2.031	1055.6	104.54	-26.723	1191.1	101.47	-44.45	781.62	1004.7	180.9	1009.9	31.214	-58.438	1044.9	80.416	-105.44
353	1.765	929.61	1560.7	-80.358	932.53	1569.3	18.604	871.9	1301.9	-13.943	894.16	1168.9	-7.8211	859.36	892.89	-117.49	844.47	911.47	133.14	801.35	1348	151.05	815.37	1181.5	209.39	1022.3	849.46	193.34	1051.6	782.43	233.61	785.66	1352.3	-163.59	723.32	1189.4	-216.56	609.95	921.74	-242.03	614.08	794.4	-242.45	550.15	746.44	-257.19	697.69	591.99	160.35	776.99	659.68	156.78	626.43	341.12	97.79	839.57	728.06	-190.39	894.35	567.14	-161.16	917.67	670.15	-154.56	866.51	646.74	-177.72	945.28	444.25	-134.24	1017.9	369.9	-73.13	1067.3	205.98	-64.613	1024.8	279.35	-128.36	1040.1	286.31	-69.449	1252.5	122	-70.505	589.74	262.77	86.714	983.23	814.72	237.65	778.18	1517.7	-95.841	645.54	448.17	131.03	617.48	456.23	1.9033	551.09	186.55	71.769	539.76	26.919	87.015	629.85	24.228	36.848	929.53	920.72	248.36	553.56	818.46	-218.16	651.94	1047.7	-216.53	724.97	669.38	181.15	577.36	31.608	3.1395	543.15	280.05	123.23	481.1	122.83	-1.3965	928.56	425.21	-2.8689	680.51	948.76	-60.878	753.56	748.62	203.59	831.21	1015	247.03	655.59	1031.8	-143.8	1175.7	77.729	-115.79	785.53	1536	48.913	684.04	1282.3	66.011	677.47	951.02	39.347	456.29	106.69	75.948	403.32	100.32	30.641	760.45	1405.7	-15.19	685.36	1193.5	-2.4302	1067.4	104.5	-26.33	1203.1	102.5	-43.92	789.76	1003.8	180.79	1022.4	30.724	-58.053	1057.1	80.255	-105.05
354	1.77	937.5	1559.8	-80.734	940.51	1568.3	18.228	880.11	1300.8	-14.39	902.5	1167.8	-8.1855	868.25	891.71	-117.44	852.68	910.39	133.23	809.41	1346.9	150.54	823.48	1180.6	209.05	1031.5	849.84	192.87	1061.2	782.79	232.88	793.85	1351.1	-164.08	730.77	1188.7	-217.16	616.4	921.49	-242.96	620.1	794.12	-243.58	556.01	746.21	-258.09	704.6	591.46	160.3	784.24	658.82	156.84	631.16	340.74	98.034	849.12	727.37	-190.68	903.35	566.28	-161.21	926.72	669.26	-153.99	875.79	645.95	-177.91	953.87	443.18	-134.01	1026.6	369.27	-72.791	1077.3	205.71	-64.133	1034.4	278.74	-127.98	1049.6	285.85	-69.045	1263.1	122.99	-69.695	593.38	262.91	87.059	992.57	814.65	236.92	786.14	1516.6	-96.111	651.65	447.74	131.16	624.06	455.91	1.9699	553.74	187.18	72.235	540.05	27.068	87.124	629.76	24.261	36.723	938.24	920.3	247.95	559.68	818.31	-219.17	658.85	1047.2	-217.25	732.28	668.75	181.11	577.39	31.501	3.1402	547.05	280.85	123.52	482.77	124.34	-0.7793	936.22	423.79	-2.8247	689.25	947.78	-61.876	761.11	747.95	203.37	839.37	1014.1	246.8	662.68	1031.1	-144.61	1186.8	77.99	-115.08	793.6	1534.8	48.642	692.25	1281	65.505	685.97	949.88	38.344	457.88	108.6	76.586	404.76	103.11	31.404	768.58	1404.5	-15.692	693.72	1192.2	-2.8573	1078.2	104.25	-25.815	1214.1	102.89	-43.319	797.87	1002.8	180.65	1033.7	30.217	-57.546	1068.2	79.914	-104.53
355	1.775	945.41	1558.9	-81.101	948.49	1567.4	17.864	888.33	1299.7	-14.886	910.88	1166.8	-8.5951	877.15	890.58	-117.42	861	909.29	133.28	817.49	1345.9	150	831.57	1179.7	208.68	1040.6	850.09	192.48	1070.6	783.01	232.25	802.04	1349.9	-164.61	738.32	1187.9	-217.81	623.11	921.14	-244.02	626.46	793.77	-244.83	562.26	745.86	-259.16	711.76	590.85	160.25	791.7	657.9	156.86	636.11	340.3	98.298	858.71	726.76	-190.91	912.48	565.54	-161.15	935.87	668.51	-153.43	885.15	645.27	-178.02	962.56	442.2	-133.76	1035.3	368.5	-72.426	1086.8	205.19	-63.563	1043.5	277.96	-127.52	1058.7	285.19	-68.581	1272.8	123.15	-68.849	597.21	263.01	87.432	1001.7	814.48	236.26	794.12	1515.5	-96.412	658.03	447.23	131.3	630.79	455.54	2.0809	556.54	187.81	72.753	540.37	27.225	87.266	629.64	24.291	36.579	946.82	919.82	247.57	566.1	818.04	-220.34	665.94	1046.6	-218.08	739.8	668.05	181.05	577.4	31.39	3.1531	551.17	281.64	123.86	484.57	125.9	-0.074701	944.05	422.55	-2.761	698.05	946.83	-62.809	768.86	747.22	203.12	847.48	1013.1	246.55	669.87	1030.4	-145.54	1196.9	77.685	-114.27	801.66	1533.5	48.342	700.48	1279.8	64.949	694.57	948.76	37.404	459.61	110.56	77.316	406.35	106.01	32.278	776.71	1403.3	-16.24	702.13	1191	-3.3117	1088	103.77	-25.181	1224	102.63	-42.633	805.96	1001.8	180.48	1043.7	29.683	-56.931	1078.2	79.377	-103.87
356	1.78	953.35	1558.1	-81.458	956.47	1566.4	17.513	896.59	1298.7	-15.43	919.32	1165.8	-9.0511	886.05	889.49	-117.43	869.44	908.16	133.28	825.58	1344.8	149.41	839.65	1178.7	208.26	1049.5	850.21	192.18	1079.7	783.07	231.72	810.24	1348.8	-165.18	745.98	1187.1	-218.53	630.08	920.7	-245.19	633.14	793.34	-246.19	568.9	745.4	-260.39	719.16	590.14	160.2	799.38	656.92	156.85	641.28	339.79	98.58	868.33	726.22	-191.11	921.72	564.93	-161	945.1	667.9	-152.89	894.57	644.69	-178.05	971.35	441.3	-133.49	1043.9	367.6	-72.036	1095.6	204.42	-62.907	1052.3	277.03	-126.99	1067.4	284.35	-68.057	1281.6	122.46	-67.952	601.23	263.08	87.832	1010.7	814.21	235.67	802.13	1514.5	-96.745	664.69	446.64	131.44	637.69	455.1	2.2341	559.52	188.44	73.321	540.74	27.393	87.44	629.49	24.317	36.419	955.29	919.29	247.23	572.82	817.65	-221.67	673.19	1046	-219.02	747.53	667.28	180.97	577.38	31.28	3.1788	555.53	282.4	124.27	486.5	127.5	0.71602	952.07	421.51	-2.6753	706.9	945.92	-63.673	776.8	746.42	202.84	855.54	1012.1	246.27	677.16	1029.6	-146.58	1205.8	76.81	-113.37	809.71	1532.3	48.011	708.73	1278.5	64.345	703.24	947.68	36.538	461.5	112.59	78.136	408.11	109.04	33.26	784.86	1402.1	-16.833	710.57	1189.7	-3.793	1096.9	103.06	-24.433	1232.9	101.69	-41.848	814.01	1000.9	180.27	1052.6	29.126	-56.228	1087.2	78.641	-103.11
